<svg xmlns="http://www.w3.org/2000/svg" viewBox="0 0 1100.01 329.48"><path d="M1021.93 99h3a74.17 74.17 0 0 1 74.2 74.2h0a76.18 76.18 0 0 1-76.2 76.2h-8.3" fill="none" stroke="#9b9b9b" stroke-miterlimit="10" stroke-width="1.75"/><path fill="#9b9b9b" d="M282.83 97.92h378.6v1.7h-378.6zm-165.2 150.7h846.9v1.7h-846.9z"/><circle cx="693.43" cy="98.82" r="32" fill="none" stroke="#c0b293" stroke-miterlimit="10"/><path d="M36.33 27.52h459.1A19.46 19.46 0 0 1 514.93 47v1a19.46 19.46 0 0 1-19.5 19.5H36.33A19.46 19.46 0 0 1 16.83 48v-1a19.46 19.46 0 0 1 19.5-19.48z" fill="#515152" stroke="#fff" stroke-miterlimit="10" fill-rule="evenodd"/><path d="M989.63 258.52h0a9 9 0 0 1-9-9h0a9 9 0 0 1 9-9h0a9 9 0 0 1 9 9h0a9 9 0 0 1-9 9z" fill="#1b1c1c" stroke="#f7f7f7" stroke-miterlimit="10" stroke-width="2"/><path d="M40.33 56.52h0a9 9 0 0 1-9-9h0a9 9 0 0 1 9-9h0a9 9 0 0 1 9 9h0a9 9 0 0 1-9 9zm450.4 0h0a9 9 0 0 1-9-9h0a9 9 0 0 1 9-9h0a9 9 0 0 1 9 9h0a9 9 0 0 1-9 9z" fill="#c0b293" stroke="#000" stroke-miterlimit="10" stroke-width="3"/><path d="M292.33 78.82h226.3a20.06 20.06 0 0 1 20 20h0a20.06 20.06 0 0 1-20 20h-226.3a20.06 20.06 0 0 1-20-20h0a19.93 19.93 0 0 1 20-20z" fill="#c0b293" stroke="#fff" stroke-miterlimit="10" fill-rule="evenodd"/><path d="M295.33 107.82h0a9 9 0 0 1-9-9h0a9 9 0 0 1 9-9h0a9 9 0 0 1 9 9h0a9 9 0 0 1-9 9zm221.5 0h0a9 9 0 0 1-9-9h0a9 9 0 0 1 9-9h0a9 9 0 0 1 9 9h0a9 9 0 0 1-9 9z" fill="#1b1c1c" stroke="#f7f7f7" stroke-miterlimit="10" stroke-width="2"/><path d="M691.93 78.82h311.6a20.06 20.06 0 0 1 20 20h0a20.06 20.06 0 0 1-20 20h-311.6a20.06 20.06 0 0 1-20-20h0a19.93 19.93 0 0 1 20-20z" fill="#c0b293" stroke="#fff" stroke-miterlimit="10" fill-rule="evenodd"/><path d="M693.43 107.82h0a9 9 0 0 1-9-9h0a9 9 0 0 1 9-9h0a9 9 0 0 1 9 9h0a9 9 0 0 1-9 9zm307.1 0h0a9 9 0 0 1-9-9h0a9 9 0 0 1 9-9h0a9 9 0 0 1 9 9h0a9 9 0 0 1-9 9z" fill="#1b1c1c" stroke="#f7f7f7" stroke-miterlimit="10" stroke-width="2"/><circle cx="989.63" cy="249.52" r="25" fill="none" stroke="#c0b293" stroke-miterlimit="10"/><path d="M92.63 258.52h0a9 9 0 0 1-9-9h0a9 9 0 0 1 9-9h0a9 9 0 0 1 9 9h0a9 9 0 0 1-9 9z" fill="#1b1c1c" stroke="#f7f7f7" stroke-miterlimit="10" stroke-width="2"/><circle cx="92.63" cy="249.52" r="25" fill="none" stroke="#c0b293" stroke-miterlimit="10"/><path d="M260.33 229.52h641.6a20.06 20.06 0 0 1 20 20h0a20.06 20.06 0 0 1-20 20h-641.6a20.06 20.06 0 0 1-20-20h0a19.93 19.93 0 0 1 20-20z" fill="#c0b293" stroke="#fff" stroke-miterlimit="10" fill-rule="evenodd"/><path d="M263 258.52h0a9 9 0 0 1-9-9h0a9 9 0 0 1 9-9h0a9 9 0 0 1 9 9h0a9 9 0 0 1-9 9zm635.83 0h0a9 9 0 0 1-9-9h0a9 9 0 0 1 9-9h0a9 9 0 0 1 9 9h0a9 9 0 0 1-9 9z" fill="#1b1c1c" stroke="#f7f7f7" stroke-miterlimit="10" stroke-width="2"/><path d="M347.39 101.81l-.65-2.16a18.46 18.46 0 0 0 4.92-6.31h-4.44V91.4h2.43a26.28 26.28 0 0 0-1-2.44l2.05-.55a31.28 31.28 0 0 1 1.08 3h2v1.73a16.12 16.12 0 0 1-2.18 4.18 6.73 6.73 0 0 1 .75.53 8.79 8.79 0 0 0 1.77-2l1.27 1.26a7.85 7.85 0 0 1-1.75 1.79 18.73 18.73 0 0 1 1.36 1.31l-1.16 1.79a23.07 23.07 0 0 0-2.28-2.63v8h-2.06v-7.6c-.65.69-1.36 1.36-2.11 2.04zm7.16-10v-2H365c0 7-.12 11.33-.32 13-.25 2.81-1.36 4.24-3.36 4.24-.45 0-1.26 0-2.4-.13l-.53-1.93c1 .08 1.85.12 2.56.12 1 0 1.51-1.12 1.67-3.32.13-.93.19-4.23.23-9.89h-3.38v1.5c-.08 6.35-1.83 11-5.29 14l-1.63-1.44q4.72-3.92 4.82-12.52v-1.59zm30.75 1.93h-2.07v-2h-13.36v2.12h-2.07v-4h7.55c-.16-.41-.35-.8-.53-1.16l2.26-.37c.16.45.32 1 .49 1.53h7.73zm-13.62 9.63v1.06h-2.07V94.17h6V92.5h2.12v1.67h6v10.2h-2.07v-1h-4v4h-2.12v-4zm0-7.24v1.75h3.91v-1.75zm0 5.31h3.91v-1.71h-3.91zm10-5.31h-4v1.75h4zm0 5.31v-1.71h-4v1.71zm14.69-10.18a15.47 15.47 0 0 0-1.3-2.16l2-.75a16.76 16.76 0 0 1 1.49 2.91h7.51v2.06h-10.54c0 .77-.08 1.77-.16 3h8.39a44.93 44.93 0 0 1-.61 8.45 3.07 3.07 0 0 1-3.1 2.42c-.67 0-1.44 0-2.34-.1l-.63-1.94c1.08.07 2 .11 2.75.11s1.3-.64 1.55-1.78a46.12 46.12 0 0 0 .22-5.15h-6.47a14 14 0 0 1-1.49 4.24 17 17 0 0 1-4.21 4.86l-1.55-1.5a15.09 15.09 0 0 0 4.27-5 14.52 14.52 0 0 0 1.16-5.17c.05-1 .09-1.83.11-2.46h-5.54v-2.04zm19.88 9.14V99h2.16v1.4h7.69v1.83h-5.9a16.37 16.37 0 0 0 6.25 2.77l-.94 1.87a16.27 16.27 0 0 1-7.1-4.29v4.66h-2.16v-4.7c-1.39 1.71-3.73 3.19-7 4.46l-1.14-1.88a18.63 18.63 0 0 0 6.33-2.89h-6v-1.83zm1.44-8c-.28.33-.53.65-.77 1h8.55V95h-3.3a12 12 0 0 1-1.87 1.89c1.65.41 3.34.89 5.05 1.42l-1.2 1.63q-2.94-1-5.91-1.83a21.16 21.16 0 0 1-8.24 1.52l-1.14-1.75a32.07 32.07 0 0 0 6.47-.53 84.8 84.8 0 0 0-3.64-.78c.51-.53 1-1 1.46-1.58h-4v-1.67h5.42c.43-.53.83-1.06 1.22-1.55zm7.94.67h-2v-1.42h-12.7V93h-2v-3.1h7.23a12.38 12.38 0 0 0-.76-1.2l2.2-.37c.23.47.45 1 .67 1.57h7.35zm-5.84 2h-4.34l-.69.73c1 .16 2.1.37 3.18.61a9 9 0 0 0 1.85-1.41zm9.21 12.05l-.47-2.06a10.25 10.25 0 0 0 1.53.12.6.6 0 0 0 .67-.69v-4.09c-.65.25-1.32.49-2 .71l-.54-2.11c.85-.21 1.71-.45 2.54-.74v-4h-2.22v-2h2.22v-3.73h2.16v3.61h1.81v2h-1.81v3.14l1.47-.76v2.16l-1.47.73V105a1.85 1.85 0 0 1-2.1 2.08zm17.47-9.67v1.89h-4.81V101h3.89v1.87h-3.89v2a23.18 23.18 0 0 0 2.53.14 27.9 27.9 0 0 0 2.85-.14l-.59 2.06h-2.12a14.78 14.78 0 0 1-5.6-.75 5.06 5.06 0 0 1-1.87-1.83 14 14 0 0 1-1.73 3l-1.59-1.38a10.65 10.65 0 0 0 2.38-6l1.88.23a13.24 13.24 0 0 1-.29 2.07 4.55 4.55 0 0 0 2.06 2.14v-5h-4.89v-1.96zm-1.2-8.37v7.43H436v-7.43zM443.19 92v-1.2h-5.11V92zm0 1.59h-5.11v1.21h5.11zm19.86 3.94a18.82 18.82 0 0 1-3.34 4.58 24 24 0 0 0 7.66 3.24l-1.33 2a24.1 24.1 0 0 1-8-3.76 21.59 21.59 0 0 1-8 3.82l-1.32-2a22 22 0 0 0 7.63-3.32 18.09 18.09 0 0 1-3.35-4.27l1.84-1a14.36 14.36 0 0 0 3.19 4 15.94 15.94 0 0 0 3.12-4.12zM456 94.17a23 23 0 0 1-5.76 5.29l-1.37-1.79a22.67 22.67 0 0 0 5.58-4.84zm.89-3.5a14.22 14.22 0 0 0-1.1-2l2.38-.41c.37.71.74 1.51 1.08 2.36h7.86v2H448.9v-2zM467.1 98l-1.57 1.59a34.88 34.88 0 0 0-5.57-5.4l1.44-1.38a42.62 42.62 0 0 1 5.7 5.19zm325.38-8.9a35.13 35.13 0 0 1-2.77 5.74l1.79-.24c.36-.77.73-1.63 1.14-2.52l1.85.67a54.22 54.22 0 0 1-3.91 7.16 21.88 21.88 0 0 0 2.83-1v1.89a24 24 0 0 1-5.27 1.44l-.55-1.91a3.53 3.53 0 0 0 1-.59 20 20 0 0 0 2-3.3c-.89.12-1.81.27-2.79.41l-.56-1.85a1.9 1.9 0 0 0 .88-.78 38.89 38.89 0 0 0 2.36-5.86zm1.81 15.82a39.11 39.11 0 0 1-6.46 1.75l-.3-2.24a38.39 38.39 0 0 0 6.76-1.67zm5.49-16.28c-.16.55-.32 1.07-.51 1.56h5.48v1.71A18.18 18.18 0 0 1 801.9 96a25.14 25.14 0 0 0 4.54 2.32l-1.1 1.92a25.15 25.15 0 0 1-4.93-2.83 18 18 0 0 1-5.7 3.11l-1-1.87a15.58 15.58 0 0 0 5.1-2.56 23.66 23.66 0 0 1-1.87-1.88 19.64 19.64 0 0 1-1.42 1.47L794.14 94a11.43 11.43 0 0 0 3.48-5.58zm5.15 17l-1.14 1.77a52.17 52.17 0 0 0-9-3.09l1.2-1.77a55.91 55.91 0 0 1 8.94 3.04zm-.73-4.19l-1 1.63a31.24 31.24 0 0 0-5.82-2.06l1.12-1.65a35.8 35.8 0 0 1 5.7 2.03zm-1.89-9.16h-4a3.5 3.5 0 0 0-.29.49 22.14 22.14 0 0 0 2.24 2.07 18 18 0 0 0 2.05-2.61zm23.58 1.45h-2.08v-2h-13.35v2.12h-2.07v-4h7.55c-.17-.41-.35-.8-.53-1.16l2.26-.37q.24.67.48 1.53h7.74zm-13.62 9.63v1.06h-2.07V94.17h6V92.5h2.12v1.67h6v10.2h-2.07v-1h-4v4h-2.12v-4zm0-7.24v1.75h3.91v-1.75zm0 5.31h3.91v-1.71h-3.91zm10-5.31h-4v1.75h4zm0 5.31v-1.71h-4v1.71zm6.36-2.83l-.71-2.28a21.74 21.74 0 0 0 4.58-8l2 .94a23.28 23.28 0 0 1-2 4.37v13.7h-2.16V96.72c-.53.65-1.1 1.28-1.71 1.89zm5.74-.41l-1.53-1.83a25.27 25.27 0 0 0 4.28-8.1l2.16.49c-.29.81-.57 1.59-.86 2.34h8.21v2.09h-6.4v2.71h5.62V98h-5.62v2.79h5.62v2h-5.62v4.54h-2.15V93.19h-.6a24 24 0 0 1-3.11 5.01zM857 107h-2.1v-1h-3.54v1h-2.08v-9.29H857zm-2.06-2.94v-4.35h-3.54v4.35zm8.84-15v7.27H852V89.1zm-2.14 2h-7.43v3.28h7.43zm4.86 15.9h-2.11v-1h-3.73v1h-2.07v-9.25h7.91zm-2.11-2.94v-4.31h-3.73v4.35zm5.2 3.1l-.47-2.06a10.25 10.25 0 0 0 1.53.12.6.6 0 0 0 .67-.69v-4.09c-.65.25-1.32.49-2 .71l-.54-2.11c.85-.21 1.71-.45 2.54-.74v-4h-2.22v-2h2.22v-3.73h2.16v3.61h1.81v2h-1.81v3.14l1.46-.76v2.16l-1.46.73V105a1.85 1.85 0 0 1-2.1 2.08zm17.47-9.67v1.89h-4.81V101h3.89v1.87h-3.89v2a23 23 0 0 0 2.53.14 27.9 27.9 0 0 0 2.85-.14l-.59 2.06h-2.12a14.78 14.78 0 0 1-5.6-.75 5.06 5.06 0 0 1-1.87-1.83 14 14 0 0 1-1.73 3l-1.59-1.38a10.65 10.65 0 0 0 2.38-6l1.88.23a14.54 14.54 0 0 1-.29 2.07 4.55 4.55 0 0 0 2.06 2.14v-5h-4.89v-1.96zm-1.2-8.37v7.43h-9.25v-7.43zM883.78 92v-1.2h-5.11V92zm0 1.59h-5.11v1.21h5.11zm19.86 3.94a18.82 18.82 0 0 1-3.34 4.58 24 24 0 0 0 7.65 3.24l-1.32 2a24.1 24.1 0 0 1-8-3.76 21.59 21.59 0 0 1-8 3.82l-1.32-2a22.13 22.13 0 0 0 7.63-3.32 18.09 18.09 0 0 1-3.38-4.31l1.83-1a14.58 14.58 0 0 0 3.2 4 15.69 15.69 0 0 0 3.11-4.12zm-7.08-3.36a23.08 23.08 0 0 1-5.77 5.29l-1.36-1.79a22.67 22.67 0 0 0 5.57-4.84zm.89-3.5a15.35 15.35 0 0 0-1.1-2l2.38-.41c.37.71.74 1.51 1.08 2.36h7.86v2h-18.18v-2zM907.69 98l-1.57 1.59a34.57 34.57 0 0 0-5.58-5.4l1.46-1.38a42.62 42.62 0 0 1 5.69 5.19zM508 245.06a17.36 17.36 0 0 1-1.94 2.16 12.35 12.35 0 0 1 1.47 6.25 6 6 0 0 1-.9 3.78 2.52 2.52 0 0 1-1.85.63c-.81 0-1.45 0-1.93-.06l-.59-1.93a15.86 15.86 0 0 0 2 .14 1 1 0 0 0 .94-.45 5.8 5.8 0 0 0 .3-2.26 11.45 11.45 0 0 0-.06-1.22 14.26 14.26 0 0 1-3.44 2.36l-1.16-1.75a13.27 13.27 0 0 0 4.22-2.77 7.89 7.89 0 0 0-.6-1.48 29.92 29.92 0 0 1-2.78 1.63l-1.1-1.81a12.07 12.07 0 0 0 2.74-1.47 7.91 7.91 0 0 0-1.85-1.45l1.55-1.32a9 9 0 0 1 1.81 1.51 13.89 13.89 0 0 0 1.36-1.59zm-2.63-4.58V239h2.16v1.47h4.72V239h2.16v1.47H519v1.93h-4.52v1.29h-2.16v-1.29h-4.72v1.29h-2.2v-1.29h-4.52v-1.93zm6.7 6.86q.06-2.07.06-3.18h2.12v3.18h4.44v2h-4.25a12.32 12.32 0 0 0 4.78 7l-1.44 1.6a12.59 12.59 0 0 1-4.3-6.1 14.37 14.37 0 0 1-4.33 6.19l-1.41-1.57a11.75 11.75 0 0 0 4.23-7.09h-3.8v-2zm6.31-1.2l-1.59 1.1a18.77 18.77 0 0 0-2-2.57l1.57-.95a19.68 19.68 0 0 1 2.05 2.42zm10.87 4.07c0-.41.08-.86.08-1.34h2.08c0 .46 0 .91-.06 1.34h7.83v2.08H532c1.4 1.79 3.95 3 7.63 3.68l-.88 2c-4.33-1-7.1-2.56-8.28-4.8q-2.07 3.27-8.65 4.83l-.9-2c3.87-.79 6.41-2 7.62-3.72h-7.15v-2.08zm-.49-11v9.54h-2.16v-2.38a31.8 31.8 0 0 1-4.64 1.77l-.87-2a34.21 34.21 0 0 0 5.51-1.93v-5.05zm-2.76 2.84l-1.16 1.75a13.81 13.81 0 0 0-3.29-2.2l1.16-1.69a13.6 13.6 0 0 1 3.29 2.14zm8.86-2.59a11.2 11.2 0 0 1-.53 1.1h4.58v1.79q-1.32 4.59-8.37 6.39l-1-1.85a17.55 17.55 0 0 0 3.63-1.2 17.18 17.18 0 0 0-1.49-1.4l1.45-1.08a15.75 15.75 0 0 1 1.6 1.56 6.61 6.61 0 0 0 2.08-2.3h-3.91a14.3 14.3 0 0 1-2.72 2.12l-1.29-1.69a8.34 8.34 0 0 0 3.83-3.7zm17.63 1.63h7.26v2.06h-14.83v4.19a27.69 27.69 0 0 1-1.92 10.79l-1.81-1.61a22.91 22.91 0 0 0 1.59-9.18v-6.25h7.37a13.69 13.69 0 0 0-.94-1.79l2.38-.41a19.2 19.2 0 0 1 .9 2.2zm10.84 5.21l-1.26-1.67a10.63 10.63 0 0 0 3.62-5.29l2.12.24a14.5 14.5 0 0 1-.84 2.18h3.18v-2.64h2.14v2.64h6.41v2h-6.41v2.62h8v2.08h-18.63v-2.08h8.49v-2.58h-4.42a15.31 15.31 0 0 1-2.4 2.5zm14.6 11.7h-2.16v-1h-9.49v1h-2.16v-7.81h13.81zm-2.16-3v-2.87h-9.49V255zm6.65-5.73l-.72-2.27a21.52 21.52 0 0 0 4.58-8l2 .94a22.78 22.78 0 0 1-2 4.38V258h-2.15v-10.62c-.53.62-1.13 1.28-1.71 1.89zm5.74-.4l-1.53-1.87a25.27 25.27 0 0 0 4.27-8.1l2.16.49c-.28.82-.57 1.59-.85 2.34h8.2v2.1H594v2.71h5.62v2.07H594v2.79h5.62v2.06H594V258h-2.16v-14.14h-.59a24.94 24.94 0 0 1-3.09 5.01zm22.58 8.79h-2v-1h-3.54v1h-2.08v-9.28h7.67zm-2-2.93v-4.36h-3.54v4.36zm8.83-15V247h-11.7v-7.26zm-2.14 2H608V245h7.43zm4.87 15.9h-2.12v-1h-3.72v1h-2.08v-9.28h7.92zm-2.12-2.93v-4.36h-3.72v4.36zm5.22 3.04l-.47-2.06a9.06 9.06 0 0 0 1.51.13.64.64 0 0 0 .69-.72v-4.15c-.74.29-1.45.57-2.18.84l-.55-2.16a20.1 20.1 0 0 0 2.73-.86v-4.07h-2.24v-2.05h2.24v-3.48h2.11v3.48h2.1v2.05h-2.1v3.14c.68-.35 1.33-.71 2-1.1v2.18c-.65.36-1.32.73-2 1.05v5.68a1.85 1.85 0 0 1-2.07 2.1zm16.46-10.14v2a11.1 11.1 0 0 1-2.8 4.58 21.74 21.74 0 0 0 4.55 2l-1.13 1.82a25 25 0 0 1-5-2.57 18.76 18.76 0 0 1-5.64 2.63l-1.16-1.81a19 19 0 0 0 5-2.22 10.13 10.13 0 0 1-2.85-4.38h-1.1v-2.05zm-1.22-7.83V244c0 .43.27.65.84.65H641v2h-2.05c-1.59 0-2.36-.72-2.36-2.12v-2.71h-3.3v.84a5.14 5.14 0 0 1-2.85 4.62l-1.44-1.71c1.45-.65 2.18-1.57 2.18-2.75v-3zm-3.36 13.13a10.07 10.07 0 0 0 2.45-3.22h-4.87a8.21 8.21 0 0 0 2.42 3.22zm16.93-4.36l-1.21-1.61a16.89 16.89 0 0 0 3.16-7.83l2.07.36c-.16.9-.36 1.73-.57 2.55h5.54v2.05h-1.3a17.94 17.94 0 0 1-2.28 8.31 13.36 13.36 0 0 0 4.35 3.86l-1.22 1.82a13.9 13.9 0 0 1-4.36-3.93 15.79 15.79 0 0 1-4.53 3.78l-1.16-1.83c-.27 1.1-1.17 1.65-2.67 1.65-.29 0-.75 0-1.45-.12l-.48-1.81c.61 0 1.14.08 1.6.08a1 1 0 0 0 1.12-.94c.08-.61.15-2.81.19-6.55h-2q-.42 6.35-2.56 9.58l-1.67-1.46q2.31-3.39 2.36-10.93V244h-1.89v-2h3.56a25.37 25.37 0 0 0-1.16-2.47l2-.57c.51 1.1.92 2.12 1.25 3h2.91V244h-4.75v2.4H651c0 5.13-.1 8.31-.26 9.49a13.12 13.12 0 0 0 4.45-3.64 25.6 25.6 0 0 1-2.07-4.79c-.34.41-.62.75-.91 1.08zm2.08-3.07a24.3 24.3 0 0 0 2 4.9 15.81 15.81 0 0 0 1.55-6.31h-2.93c-.19.51-.42.94-.62 1.41z"/><path d="M15.83 5h-2.12a2.39 2.39 0 0 0-2.61-2 2.63 2.63 0 0 0-2.36 1.42 6.34 6.34 0 0 0-.86 3.46 1.43 1.43 0 0 0 0 .26H8a3.64 3.64 0 0 1 1.5-1.4 4.17 4.17 0 0 1 2-.44 4.43 4.43 0 0 1 3.36 1.32 5 5 0 0 1 1.24 3.46 4.73 4.73 0 0 1-1.42 3.52A5 5 0 0 1 11.1 16a4.6 4.6 0 0 1-4-1.92A8.59 8.59 0 0 1 5.78 9 10 10 0 0 1 7.2 3.34a4.47 4.47 0 0 1 3.92-2.18c2.77 0 4.35 1.28 4.71 3.84zM8.92 8.9a3.15 3.15 0 0 0-.78 2.24 3.06 3.06 0 0 0 .8 2.22 2.73 2.73 0 0 0 2.06.84 2.69 2.69 0 0 0 2.11-.88 3.22 3.22 0 0 0 .89-2.24 3 3 0 0 0-.78-2.18A2.78 2.78 0 0 0 11 8.06a2.76 2.76 0 0 0-2.08.84zm12.08 9l-1.46-1.34a11.56 11.56 0 0 0 1.96-6.72V0h11.93v15.68a1.71 1.71 0 0 1-1.94 1.92h-2.56l-.52-1.86c.88 0 1.7.08 2.46.08.42 0 .64-.28.64-.8v-3.5h-8.2A12.63 12.63 0 0 1 21 17.9zM31.51 1.84h-8.1v3h8.1zm-8.1 7.92h8.1V6.62h-8.1zm19.8-8.32v14.28H41V4.06a7.79 7.79 0 0 1-3.28 1.8V3.7a8.37 8.37 0 0 0 2-.84 8.31 8.31 0 0 0 1.8-1.42zm11.48.76A3.56 3.56 0 0 1 56 5.08a3.1 3.1 0 0 1-2.36 3.14 4 4 0 0 1 1.89 1.18 3 3 0 0 1 .72 2.08 4.24 4.24 0 0 1-1.36 3.24A5.51 5.51 0 0 1 51.15 16a5.32 5.32 0 0 1-3.53-1.12 5 5 0 0 1-1.68-3.66h2.2a2.94 2.94 0 0 0 .94 2.22 2.89 2.89 0 0 0 2 .72 3.17 3.17 0 0 0 2.23-.8 2.41 2.41 0 0 0 .74-1.78 2.2 2.2 0 0 0-.78-1.86 3.31 3.31 0 0 0-2.14-.6h-1.01V7.48h1a2.93 2.93 0 0 0 2-.58 2.07 2.07 0 0 0 .69-1.66 2.15 2.15 0 0 0-.62-1.64 2.84 2.84 0 0 0-1.95-.6 2.89 2.89 0 0 0-2 .66 3 3 0 0 0-.86 2h-2.16a4.66 4.66 0 0 1 1.58-3.32 4.88 4.88 0 0 1 3.42-1.18 5.37 5.37 0 0 1 3.47 1.04zm19 15.48h-1.9v-1.4h-9v1.42h-1.9V0h12.8zM71.79 7V1.84h-9V7zm0 7.42V8.86h-9v5.56zM464.51 1.44V3.2l-5.06 12.52h-2.32l5.18-12.3h-7.4v-2zm4.9 16.46L468 16.56a11.56 11.56 0 0 0 1.94-6.72V0h11.92v15.68a1.71 1.71 0 0 1-1.94 1.92h-2.56l-.52-1.86c.88 0 1.7.08 2.46.08.42 0 .64-.28.64-.8v-3.5h-8.2a12.63 12.63 0 0 1-2.33 6.38zm10.48-16.06h-8.1v3h8.1zm-8.1 7.92h8.1V6.62h-8.1zm19.8-8.32v14.28h-2.18V4.06a7.79 7.79 0 0 1-3.28 1.8V3.7a8.37 8.37 0 0 0 2-.84A8.31 8.31 0 0 0 490 1.44zm11.32 0v9.44h2.16v1.74h-2.16v3.1h-2.08v-3.1h-7v-2.06l7-9.12zm-7.26 9.44h5.18V4.2h-.06zm26.42 6.8h-1.9v-1.4h-9v1.42h-1.9V0h12.82zM520.17 7V1.84h-9V7zm0 7.42V8.86h-9v5.56zM270.48 134.28h-2.12a2.39 2.39 0 0 0-2.6-2.08 2.63 2.63 0 0 0-2.36 1.46 6.34 6.34 0 0 0-.86 3.46 1.43 1.43 0 0 0 0 .26h.08a3.64 3.64 0 0 1 1.52-1.4 4.13 4.13 0 0 1 2-.44 4.43 4.43 0 0 1 3.36 1.32 5 5 0 0 1 1.24 3.46 4.73 4.73 0 0 1-1.42 3.52 5 5 0 0 1-3.56 1.4 4.6 4.6 0 0 1-4-1.92 8.59 8.59 0 0 1-1.32-5.1 10 10 0 0 1 1.42-5.64 4.47 4.47 0 0 1 3.92-2.18c2.76 0 4.34 1.28 4.7 3.88zm-6.9 3.86a3.15 3.15 0 0 0-.78 2.24 3.06 3.06 0 0 0 .8 2.22 3 3 0 0 0 4.18 0 3.22 3.22 0 0 0 .82-2.24 3 3 0 0 0-.78-2.18 2.77 2.77 0 0 0-2.12-.84 2.74 2.74 0 0 0-2.12.8zm12.1 9l-1.46-1.34a11.56 11.56 0 0 0 1.94-6.72v-9.82h11.92v15.66a1.71 1.71 0 0 1-1.94 1.92h-2.56l-.52-1.86c.88 0 1.7.08 2.46.08.42 0 .64-.28.64-.8v-3.5H278a12.63 12.63 0 0 1-2.32 6.38zm10.48-16.06h-8.1v3h8.1zm-8.1 7.92h8.1v-3.14h-8.1zm23.12-7.56a3.56 3.56 0 0 1 1.28 2.88 3.1 3.1 0 0 1-2.36 3.14 4 4 0 0 1 1.92 1.18 3 3 0 0 1 .72 2.08 4.24 4.24 0 0 1-1.36 3.24 5.51 5.51 0 0 1-3.74 1.28 5.31 5.31 0 0 1-3.52-1.12 5 5 0 0 1-1.68-3.66h2.2a2.94 2.94 0 0 0 .94 2.22 2.89 2.89 0 0 0 2 .72 3.14 3.14 0 0 0 2.22-.8 2.41 2.41 0 0 0 .74-1.78 2.2 2.2 0 0 0-.78-1.86 3.29 3.29 0 0 0-2.14-.6h-1v-1.64h1a3 3 0 0 0 2-.58 2.09 2.09 0 0 0 .68-1.66 2.15 2.15 0 0 0-.62-1.64 2.81 2.81 0 0 0-1.94-.58 2.89 2.89 0 0 0-2 .66 3 3 0 0 0-.86 2h-2.14a4.66 4.66 0 0 1 1.58-3.32 4.88 4.88 0 0 1 3.42-1.18 5.36 5.36 0 0 1 3.44 1.02zm12.3 1.08a11.78 11.78 0 0 1 0 10.6 4.65 4.65 0 0 1-7.8 0 11.78 11.78 0 0 1 0-10.6 4.65 4.65 0 0 1 7.8 0zm-6.38 1.66a10 10 0 0 0-.52 3.64 10.1 10.1 0 0 0 .52 3.64 2.56 2.56 0 0 0 5 0 10.56 10.56 0 0 0 .52-3.64 10.41 10.41 0 0 0-.52-3.64 2.56 2.56 0 0 0-5 0zm25.08 12.74h-1.9v-1.4h-9v1.42h-1.9v-17.7h12.82zm-1.9-10.68v-5.16h-9v5.16zm0 7.42v-5.56h-9v5.56zm146.17-12.98v1.76L471.39 145h-2.32l5.18-12.3h-7.4v-2zm4.9 16.46l-1.46-1.34a11.56 11.56 0 0 0 1.94-6.72v-9.82h11.92v15.66a1.71 1.71 0 0 1-1.94 1.92h-2.56l-.52-1.86c.88 0 1.7.08 2.46.08.42 0 .64-.28.64-.8v-3.5h-8.2a12.63 12.63 0 0 1-2.28 6.38zm10.48-16.06h-8.1v3h8.1zm-8.1 7.92h8.1v-3.14h-8.1zm19.8-8.32V145h-2.18v-11.7a7.79 7.79 0 0 1-3.28 1.8v-2.16a8.21 8.21 0 0 0 3.82-2.26zm12.38 0v1.92h-6.84l-.42 4.12h.06a3.76 3.76 0 0 1 1.52-1 4.52 4.52 0 0 1 1.76-.32 4.34 4.34 0 0 1 3.28 1.32 5 5 0 0 1 1.28 3.62 4.59 4.59 0 0 1-1.64 3.62 5.57 5.57 0 0 1-3.66 1.26 5.3 5.3 0 0 1-3.3-1.06 4.13 4.13 0 0 1-1.68-3.14h2.14a2.47 2.47 0 0 0 .94 1.82 3.12 3.12 0 0 0 1.92.54 3.2 3.2 0 0 0 2.22-.82 2.85 2.85 0 0 0 .9-2.2 3.31 3.31 0 0 0-.78-2.34 2.83 2.83 0 0 0-2.2-.84 3.62 3.62 0 0 0-1.66.34 2.51 2.51 0 0 0-1.18 1.14h-2l.78-8zM534 146.92h-1.9v-1.4h-9v1.42h-1.9v-17.7H534zm-1.9-10.68v-5.16h-9v5.16zm0 7.42v-5.56h-9v5.56zM666.94 41.73a3.47 3.47 0 0 1 1.2 2.68 3.38 3.38 0 0 1-.48 1.86 3.3 3.3 0 0 1-1.66 1.22v.06a3.06 3.06 0 0 1 1.76 1.2 3.59 3.59 0 0 1 .84 2.36 3.89 3.89 0 0 1-1.38 3.08 6 6 0 0 1-3.94 1.18 5.94 5.94 0 0 1-3.94-1.18 3.89 3.89 0 0 1-1.34-3.08 3.59 3.59 0 0 1 .84-2.36 3 3 0 0 1 1.76-1.2v-.06a3.3 3.3 0 0 1-1.6-1.22 3.38 3.38 0 0 1-.48-1.86 3.47 3.47 0 0 1 1.2-2.68 6.06 6.06 0 0 1 7.24 0zm-6 7.48a2.39 2.39 0 0 0-.8 1.9 2.2 2.2 0 0 0 .82 1.8 3.51 3.51 0 0 0 2.34.7 3.75 3.75 0 0 0 2.38-.7 2.29 2.29 0 0 0 .78-1.8 2.37 2.37 0 0 0-.78-1.88 3.35 3.35 0 0 0-2.38-.78 3.22 3.22 0 0 0-2.3.76zm.26-6.24a1.94 1.94 0 0 0-.68 1.52 2.25 2.25 0 0 0 .56 1.62 3 3 0 0 0 2.22.72 3 3 0 0 0 2.22-.72 2.34 2.34 0 0 0 .56-1.62 2 2 0 0 0-.68-1.52 3.5 3.5 0 0 0-4.2 0zm12.22 14.3L672 55.93a11.56 11.56 0 0 0 1.94-6.72v-9.82h11.92v15.66a1.71 1.71 0 0 1-1.98 1.95h-2.56l-.52-1.86c.88 0 1.7.08 2.46.08.42 0 .64-.28.64-.8v-3.5h-8.2a12.63 12.63 0 0 1-2.28 6.35zm10.48-16.06h-8.1v3h8.1zm-8.1 7.92h8.1V46h-8.1zm19.8-8.32v14.28h-2.18V43.43a7.79 7.79 0 0 1-3.28 1.8v-2.16a8.21 8.21 0 0 0 3.86-2.26zm11.78 1.84a9.76 9.76 0 0 1 1.26 5.3 9.81 9.81 0 0 1-1.26 5.3 4.65 4.65 0 0 1-7.8 0 9.76 9.76 0 0 1-1.26-5.3 9.67 9.67 0 0 1 1.26-5.3 4.65 4.65 0 0 1 7.8 0zM701 44.31a10 10 0 0 0-.52 3.64 10.1 10.1 0 0 0 .52 3.64 2.56 2.56 0 0 0 5 0 10.56 10.56 0 0 0 .52-3.64 10.41 10.41 0 0 0-.52-3.64 2.56 2.56 0 0 0-5 0zm25.08 12.74h-1.9v-1.4h-9v1.42h-1.9v-17.7h12.82zm-1.9-10.68v-5.16h-9v5.16zm0 7.42v-5.56h-9v5.56zM871.79 201.9v14.28h-2.18v-11.66a7.79 7.79 0 0 1-3.28 1.8v-2.16a8.21 8.21 0 0 0 3.82-2.26zm11.78 1.84a11.78 11.78 0 0 1 0 10.6 4.65 4.65 0 0 1-7.8 0 11.78 11.78 0 0 1 0-10.6 4.65 4.65 0 0 1 7.8 0zm-6.38 1.66a10 10 0 0 0-.52 3.64 10.1 10.1 0 0 0 .52 3.64 2.56 2.56 0 0 0 5 0 10.56 10.56 0 0 0 .52-3.64 10.41 10.41 0 0 0-.52-3.64 2.56 2.56 0 0 0-5 0zm12.58 12.96l-1.46-1.36a11.56 11.56 0 0 0 1.94-6.72v-9.82h11.92v15.66a1.71 1.71 0 0 1-1.94 1.92h-2.56l-.52-1.86c.88 0 1.7.08 2.46.08.42 0 .64-.28.64-.8V212h-8.2a12.63 12.63 0 0 1-2.28 6.36zm10.48-16.06h-8.1v3h8.1zm-8.1 7.92h8.1v-3.14h-8.1zm23.12-7.42a4 4 0 0 1 1.3 3.08 5 5 0 0 1-1.4 3.38 19.94 19.94 0 0 1-3 2.3 7 7 0 0 0-2.76 2.7h7.14v1.92h-9.84a5.43 5.43 0 0 1 1.42-3.74 18.12 18.12 0 0 1 3.22-2.6 15 15 0 0 0 2-1.64 3.48 3.48 0 0 0 1-2.34 2.31 2.31 0 0 0-.66-1.8 2.82 2.82 0 0 0-1.94-.6 2.37 2.37 0 0 0-2 .92A4.34 4.34 0 0 0 909 207h-2.18a5.49 5.49 0 0 1 1.38-3.84 4.67 4.67 0 0 1 3.68-1.54 4.84 4.84 0 0 1 3.39 1.18zm12.3.94a11.78 11.78 0 0 1 0 10.6 4.65 4.65 0 0 1-7.8 0 11.78 11.78 0 0 1 0-10.6 4.65 4.65 0 0 1 7.8 0zm-6.38 1.66a10 10 0 0 0-.52 3.64 10.1 10.1 0 0 0 .52 3.64 2.56 2.56 0 0 0 5 0 10.56 10.56 0 0 0 .52-3.64 10.41 10.41 0 0 0-.52-3.64 2.56 2.56 0 0 0-5 0zm25.08 12.74h-1.9v-1.4h-9v1.42h-1.9v-17.7h12.82zm-1.9-10.68v-5.16h-9v5.16zm0 7.42v-5.56h-9v5.56zm15.93 70.4V299h-2.1v-11.2a7.58 7.58 0 0 1-3.16 1.74v-2.08a8.62 8.62 0 0 0 2-.81 8.23 8.23 0 0 0 1.73-1.37zm11.35 1.77a11.29 11.29 0 0 1 0 10.21 4.46 4.46 0 0 1-7.51 0 11.29 11.29 0 0 1 0-10.21 4.48 4.48 0 0 1 7.51 0zm-6.14 1.6a12.3 12.3 0 0 0 0 7 2.46 2.46 0 0 0 4.77 0 12.3 12.3 0 0 0 0-7 2.46 2.46 0 0 0-4.77 0zm12.12 12.49l-1.41-1.29a11.21 11.21 0 0 0 1.87-6.48v-9.46h11.48V299a1.65 1.65 0 0 1-1.87 1.85h-2.46l-.5-1.79c.84 0 1.63.07 2.37.07.4 0 .61-.27.61-.77V295h-7.9a12.2 12.2 0 0 1-2.19 6.14zm10.09-15.48h-7.8v2.89h7.8zm-7.8 7.63h7.8v-3h-7.8zm19.08-8.01V299h-2.1v-11.2a7.55 7.55 0 0 1-3.17 1.74v-2.08a8.44 8.44 0 0 0 1.95-.81 8.57 8.57 0 0 0 1.74-1.37zm12.31 3.47h-2a2.31 2.31 0 0 0-2.51-2 2.52 2.52 0 0 0-2.27 1.41 6.09 6.09 0 0 0-.83 3.33 1.29 1.29 0 0 0 0 .25h.07a3.58 3.58 0 0 1 1.47-1.35 4 4 0 0 1 1.91-.42 4.23 4.23 0 0 1 3.23 1.27 4.8 4.8 0 0 1 1.2 3.34 4.56 4.56 0 0 1-1.37 3.39 4.82 4.82 0 0 1-3.43 1.35 4.42 4.42 0 0 1-3.85-1.85 8.29 8.29 0 0 1-1.28-4.92 9.67 9.67 0 0 1 1.37-5.43 4.31 4.31 0 0 1 3.78-2.1c2.64-.02 4.2 1.22 4.51 3.73zm-6.65 3.72a3 3 0 0 0-.75 2.15 2.94 2.94 0 0 0 .77 2.14 2.86 2.86 0 0 0 4 0 3.08 3.08 0 0 0 .79-2.15 2.85 2.85 0 0 0-.75-2.1 2.7 2.7 0 0 0-2-.81 2.64 2.64 0 0 0-2.06.77zm23.7 8.46h-1.83v-1.35h-8.69V301H1016v-17.11h12.35zm-1.83-10.3v-5h-8.69v5zm0 7.15v-5.35h-8.69v5.35zm-819.71-12.12a4 4 0 0 1 1.3 3.08 5 5 0 0 1-1.4 3.38 19.94 19.94 0 0 1-3 2.3 7 7 0 0 0-2.76 2.7h7.14V299h-9.8a5.43 5.43 0 0 1 1.42-3.74 18.12 18.12 0 0 1 3.22-2.6 15 15 0 0 0 2-1.64 3.5 3.5 0 0 0 1-2.34 2.31 2.31 0 0 0-.66-1.8 2.77 2.77 0 0 0-1.94-.6 2.35 2.35 0 0 0-2 .92 4.32 4.32 0 0 0-.76 2.62h-2.18a5.52 5.52 0 0 1 1.38-3.85 4.67 4.67 0 0 1 3.68-1.54 4.8 4.8 0 0 1 3.36 1.23zm12.3.93a11.8 11.8 0 0 1 0 10.61 4.65 4.65 0 0 1-7.8 0 11.8 11.8 0 0 1 0-10.61 4.65 4.65 0 0 1 7.8 0zm-6.38 1.66a13 13 0 0 0 0 7.29 2.56 2.56 0 0 0 5 0 13 13 0 0 0 0-7.29 2.56 2.56 0 0 0-5 0zm18.08-2.59a4 4 0 0 1 1.3 3.08 5 5 0 0 1-1.4 3.38 19.94 19.94 0 0 1-3 2.3 7 7 0 0 0-2.76 2.7h7.14V299h-9.8a5.43 5.43 0 0 1 1.42-3.74 18.12 18.12 0 0 1 3.22-2.6 15 15 0 0 0 2-1.64 3.5 3.5 0 0 0 1-2.34 2.31 2.31 0 0 0-.66-1.8 2.77 2.77 0 0 0-1.94-.6 2.35 2.35 0 0 0-2 .92 4.32 4.32 0 0 0-.76 2.62h-2.18a5.52 5.52 0 0 1 1.38-3.85 4.67 4.67 0 0 1 3.68-1.54 4.8 4.8 0 0 1 3.36 1.23zm8.68-.91V299h-2.18v-11.62a7.78 7.78 0 0 1-3.28 1.79V287a8.21 8.21 0 0 0 3.82-2.26zm3.9 5.33l-1.28-1.6a10.83 10.83 0 0 0 4-6l2 .36c-.2.69-.4 1.3-.64 1.9h12.16v1.85h-6.14v2.76h5.44v1.78h-5.44V295h6.76v1.86h-6.76v4.32h-1.9v-4.32h-9.1V295h3.14v-5.66h5.94v-2.76h-5a12.35 12.35 0 0 1-3.18 3.5zm8.18 4.9v-3.88h-4v3.9zm19.42-9.47a3.58 3.58 0 0 1 1.28 2.89 3.1 3.1 0 0 1-2.36 3.14 4 4 0 0 1 1.92 1.18 3 3 0 0 1 .72 2.08 4.24 4.24 0 0 1-1.36 3.24 5.51 5.51 0 0 1-3.74 1.28 5.31 5.31 0 0 1-3.52-1.12 5 5 0 0 1-1.68-3.66h2.2a2.94 2.94 0 0 0 .94 2.22 2.89 2.89 0 0 0 2 .72 3.14 3.14 0 0 0 2.22-.8 2.41 2.41 0 0 0 .74-1.78 2.2 2.2 0 0 0-.78-1.86 3.29 3.29 0 0 0-2.14-.6h-1v-1.64h1a3 3 0 0 0 2-.58 2.11 2.11 0 0 0 .68-1.66 2.14 2.14 0 0 0-.62-1.64 2.77 2.77 0 0 0-1.94-.59 2.63 2.63 0 0 0-2.88 2.65h-2.14a4.64 4.64 0 0 1 1.58-3.32 4.84 4.84 0 0 1 3.42-1.19 5.42 5.42 0 0 1 3.46 1.04zm6.48 15.71l-1.48-1.34a11.56 11.56 0 0 0 1.94-6.72v-9.83h11.92V299a1.71 1.71 0 0 1-1.94 1.92h-2.56l-.52-1.86c.88 0 1.7.08 2.46.08.42 0 .64-.28.64-.8v-3.5h-8.2a12.63 12.63 0 0 1-2.26 6.38zM288 285.16h-8.1v3h8.1zm-8.1 7.92h8.1v-3.14h-8.1zm23.1-7.42a4 4 0 0 1 1.3 3.08 5 5 0 0 1-1.4 3.38 19.94 19.94 0 0 1-3 2.3 7 7 0 0 0-2.76 2.7h7.14V299h-9.84a5.43 5.43 0 0 1 1.42-3.74 18.12 18.12 0 0 1 3.22-2.6 15 15 0 0 0 2-1.64 3.5 3.5 0 0 0 1-2.34 2.31 2.31 0 0 0-.66-1.8 2.77 2.77 0 0 0-1.94-.6 2.35 2.35 0 0 0-2 .92 4.32 4.32 0 0 0-.76 2.62h-2.18a5.52 5.52 0 0 1 1.38-3.85 4.67 4.67 0 0 1 3.68-1.54 4.8 4.8 0 0 1 3.4 1.23zm12.28.93a11.8 11.8 0 0 1 0 10.61 4.65 4.65 0 0 1-7.8 0 11.8 11.8 0 0 1 0-10.61 4.65 4.65 0 0 1 7.8 0zm-6.38 1.66a13 13 0 0 0 0 7.29 2.56 2.56 0 0 0 5 0 13 13 0 0 0 0-7.29 2.56 2.56 0 0 0-5 0zM334 301h-1.9v-1.4h-9v1.4h-1.9v-17.69H334zm-1.9-10.68v-5.16h-9v5.16zm0 7.42v-5.56h-9v5.56zM50.38 201.25a4 4 0 0 1 1.3 3.08 5 5 0 0 1-1.4 3.38 19.94 19.94 0 0 1-3 2.3 7 7 0 0 0-2.76 2.7h7.18v1.92h-9.84a5.43 5.43 0 0 1 1.42-3.74 18.12 18.12 0 0 1 3.22-2.6 15 15 0 0 0 2-1.64 3.48 3.48 0 0 0 1-2.34 2.31 2.31 0 0 0-.66-1.8 2.82 2.82 0 0 0-1.94-.6 2.37 2.37 0 0 0-2 .92 4.34 4.34 0 0 0-.76 2.62h-2.2a5.49 5.49 0 0 1 1.38-3.84 4.67 4.67 0 0 1 3.68-1.54 4.84 4.84 0 0 1 3.38 1.18zm12.3.94a11.78 11.78 0 0 1 0 10.6 4.65 4.65 0 0 1-7.8 0 11.78 11.78 0 0 1 0-10.6 4.65 4.65 0 0 1 7.8 0zm-6.38 1.66a10 10 0 0 0-.52 3.64 10.1 10.1 0 0 0 .52 3.64 2.56 2.56 0 0 0 5 0 10.56 10.56 0 0 0 .52-3.64 10.41 10.41 0 0 0-.52-3.64 2.56 2.56 0 0 0-5 0zm18.08-2.6a4 4 0 0 1 1.3 3.08 5 5 0 0 1-1.4 3.38 19.94 19.94 0 0 1-3 2.3 7 7 0 0 0-2.76 2.7h7.18v1.92h-9.84a5.43 5.43 0 0 1 1.42-3.74 18.12 18.12 0 0 1 3.22-2.6 15 15 0 0 0 2-1.64 3.48 3.48 0 0 0 1-2.34 2.31 2.31 0 0 0-.66-1.8 2.82 2.82 0 0 0-1.94-.6 2.37 2.37 0 0 0-2 .92 4.34 4.34 0 0 0-.76 2.62h-2.2a5.49 5.49 0 0 1 1.38-3.84 4.67 4.67 0 0 1 3.68-1.54 4.84 4.84 0 0 1 3.38 1.18zm8.68-.9v14.28h-2.18V203a7.79 7.79 0 0 1-3.28 1.8v-2.16a8.21 8.21 0 0 0 3.82-2.26zm3.94 5.32l-1.28-1.6a10.81 10.81 0 0 0 4-6l2 .36c-.2.68-.4 1.3-.64 1.9h12.16v1.84H97v2.76h5.44v1.78H97v3.88h6.76v1.86H97v4.32h-1.9v-4.32h-9.04v-1.86h3.14v-5.66h5.94v-2.76h-5a12.35 12.35 0 0 1-3.14 3.5zm8.18 4.9v-3.88h-4v3.88zm19.2-10.22v9.44h2.16v1.74h-2.16v3.1h-2.08v-3.1h-7v-2.06l7-9.12zm-7.26 9.44h5.18v-6.68h-.06zm13.88 7.02l-1.46-1.34a11.56 11.56 0 0 0 1.94-6.72v-9.82h11.92v15.66a1.71 1.71 0 0 1-1.94 1.92h-2.56l-.52-1.86c.88 0 1.7.08 2.46.08.42 0 .64-.28.64-.8v-3.5h-8.2a12.63 12.63 0 0 1-2.28 6.38zm10.48-16.06h-8.1v3h8.1zm-8.1 7.92h8.1v-3.14h-8.1zM974.42 42.43a8.61 8.61 0 0 1 1.34 5.12 10.16 10.16 0 0 1-1.42 5.64 4.54 4.54 0 0 1-3.92 2.18c-2.78 0-4.34-1.3-4.7-3.88h2.12a2.39 2.39 0 0 0 2.6 2.08 2.71 2.71 0 0 0 2.36-1.46 6.57 6.57 0 0 0 .86-3.46v-.26h-.08a4.06 4.06 0 0 1-1.52 1.4 4.5 4.5 0 0 1-2 .44 4.43 4.43 0 0 1-3.38-1.36 4.81 4.81 0 0 1-1.22-3.42 4.63 4.63 0 0 1 1.42-3.52 4.87 4.87 0 0 1 3.56-1.4 4.58 4.58 0 0 1 3.98 1.9zm-6 .78a3.14 3.14 0 0 0-.8 2.24 2.93 2.93 0 0 0 .8 2.18 2.67 2.67 0 0 0 2.1.84 2.77 2.77 0 0 0 2.12-.84 3.18 3.18 0 0 0 .78-2.24 3.08 3.08 0 0 0-.8-2.22 2.77 2.77 0 0 0-2.08-.84 2.66 2.66 0 0 0-2.14.88zm12.28 14.06l-1.46-1.34a11.56 11.56 0 0 0 1.94-6.72v-9.82h11.92v15.66a1.71 1.71 0 0 1-1.94 1.95h-2.56l-.52-1.86c.88 0 1.7.08 2.46.08.42 0 .64-.28.64-.8v-3.5H983a12.63 12.63 0 0 1-2.3 6.35zm10.48-16.06h-8.1v3h8.1zm-8.1 7.92h8.1V46h-8.1zm23.12-7.42a4 4 0 0 1 1.3 3.08 5 5 0 0 1-1.4 3.38 19.94 19.94 0 0 1-3 2.3 7 7 0 0 0-2.76 2.7h7.14v1.92h-9.84a5.43 5.43 0 0 1 1.42-3.74 18.12 18.12 0 0 1 3.22-2.6 15 15 0 0 0 2-1.64 3.48 3.48 0 0 0 1-2.34 2.31 2.31 0 0 0-.66-1.8 2.82 2.82 0 0 0-1.94-.6 2.37 2.37 0 0 0-2 .92 4.34 4.34 0 0 0-.76 2.62h-2.18a5.49 5.49 0 0 1 1.38-3.84 4.67 4.67 0 0 1 3.68-1.54 4.84 4.84 0 0 1 3.4 1.18zm12.3.94a9.76 9.76 0 0 1 1.26 5.3 9.81 9.81 0 0 1-1.26 5.3 4.65 4.65 0 0 1-7.8 0 9.76 9.76 0 0 1-1.26-5.3 9.67 9.67 0 0 1 1.26-5.3 4.65 4.65 0 0 1 7.8 0zm-6.38 1.66a10 10 0 0 0-.52 3.64 10.1 10.1 0 0 0 .52 3.64 2.56 2.56 0 0 0 5 0 10.56 10.56 0 0 0 .52-3.64 10.41 10.41 0 0 0-.52-3.64 2.56 2.56 0 0 0-5 0zm25.08 12.74h-1.9v-1.4h-9v1.42h-1.9v-17.7h12.82zm-1.9-10.68v-5.16h-9v5.16zm0 7.42v-5.56h-9v5.56z" fill="#9b9b9b"/><path d="M991.09 313.76a15.48 15.48 0 0 1-3.22 4.78 15.64 15.64 0 0 0 4.6 2.52 7.62 7.62 0 0 0-1.24 1.54 16.16 16.16 0 0 1-4.68-2.9 18.5 18.5 0 0 1-4.92 2.9 5.5 5.5 0 0 0-1.16-1.5 17.37 17.37 0 0 0 4.82-2.62 16.9 16.9 0 0 1-1.82-2.32 14.76 14.76 0 0 1-1.88 1.82 5.19 5.19 0 0 0-1-1.06 39.39 39.39 0 0 1-3.78 5.12l3.72-.52a13.4 13.4 0 0 0 .06 1.6c-5 .8-5.74 1-6.24 1.22a14.34 14.34 0 0 0-.56-1.68c.46-.1.92-.54 1.54-1.26a23.39 23.39 0 0 0 1.82-2.34 13.12 13.12 0 0 0-2.94.48 12.84 12.84 0 0 0-.61-1.72c.38-.1.73-.56 1.17-1.22a26.56 26.56 0 0 0 2.62-5.48l1.8.74a36.3 36.3 0 0 1-3.14 5.8l2.16-.18a22.16 22.16 0 0 0 1.2-2.12l1.44.9a14 14 0 0 0 3.64-5.08l1.94.32c-.26.54-.52 1.12-.84 1.66h4.06l.32-.06zm-17.42 12.88c1.82-.28 4.58-.82 7.22-1.3L981 327c-2.48.54-5.08 1.06-7.06 1.46zM983 325a39.91 39.91 0 0 1 7.74 3l-1.08 1.46a36.26 36.26 0 0 0-7.72-3.1zm2.18-3.42a22 22 0 0 1 4.24 2.12l-1.08 1.34a20.26 20.26 0 0 0-4.22-2.26zm1.34-4.24a12.81 12.81 0 0 0 2.06-2.6h-4.08a12.73 12.73 0 0 0 2.05 2.64zm24.75-4.16v3.44h-1.9v-1.68h-12.92v1.68h-1.85v-3.44h7.57c-.22-.52-.5-1.18-.76-1.68l1.94-.54c.36.7.82 1.62 1 2.18h-.14zm-7.38 4.18h6.22v9.54h-1.86v-.9h-4.36v3.52H1002V326h-4.38v1h-1.8v-9.62h6.18v-1.82h1.92zm-6.3 1.62v1.88h4.41V319zm4.38 5.36v-1.9h-4.38v1.9zm1.92-5.36v1.88h4.36V319zm4.36 5.36v-1.9h-4.36v1.9zM641.08 28c-.38-.6-1.18-1.6-1.9-2.5v7.58h-1.92v-7.39a16.07 16.07 0 0 1-2.26 2.16 8.21 8.21 0 0 0-.94-1.82 17.82 17.82 0 0 0 5.14-6.22h-4.66v-1.68h3.64a19.07 19.07 0 0 0-1.66-2.66l1.42-.82a16.92 16.92 0 0 1 1.78 2.62l-1.34.86h1.84l.28-.08 1 .74a22.13 22.13 0 0 1-2.38 4.44v.18l.54.52a15.91 15.91 0 0 0 1.6-1.93l1.24 1c-.68.64-1.36 1.28-1.94 1.78.7.72 1.38 1.44 1.62 1.72zm10.74-11.64v1c-.24 10.14-.46 13.56-1.2 14.58a2.07 2.07 0 0 1-1.64 1 18.77 18.77 0 0 1-2.88 0 4.1 4.1 0 0 0-.56-1.78c1.16.1 2.16.1 2.62.1a.79.79 0 0 0 .78-.36c.62-.7.86-4 1.06-12.74h-3.32c-.3 7-1.24 11.82-4.88 14.94a9.07 9.07 0 0 0-1.46-1.44c3.46-2.64 4.26-7.2 4.46-13.5h-2.94v-1.83zm19.9.35v3.44h-1.9v-1.68H656.9v1.68h-1.84v-3.44h7.56c-.22-.52-.5-1.18-.76-1.68l1.94-.54c.36.7.82 1.62 1 2.18h-.14zm-7.38 4.18h6.22v9.54h-1.86v-.94h-4.36V33h-1.92v-3.51H658v1h-1.8v-9.6h6.18v-1.82h1.92zM658 22.51v1.88h4.38v-1.88zm4.38 5.36V26H658v1.9zm1.92-5.36v1.88h4.36v-1.88zm4.36 5.36V26h-4.36v1.9zm10.14-7.06c.42-.66.86-1.36 1.24-2.08l1.66 1a40 40 0 0 1-4.22 5.66l4-.64a10.35 10.35 0 0 0 .12 1.64c-5.46 1-6.28 1.16-6.78 1.44a15.77 15.77 0 0 0-.6-1.8c.48-.1.94-.54 1.58-1.28a20 20 0 0 0 1.88-2.3 12.32 12.32 0 0 0-3 .52 15.48 15.48 0 0 0-.64-1.82c.38-.1.74-.54 1.16-1.16a24.56 24.56 0 0 0 2.6-5.26l1.9.78a31.75 31.75 0 0 1-3.12 5.49zm-4.66 9.36c1.88-.3 4.7-.86 7.4-1.38l.16 1.72c-2.54.56-5.24 1.12-7.26 1.56zm13.8-11.12v2.68h3.94v1.76h-9.76v-1.76H686v-2.68h-4.38v-1.8H686v-2.56h1.94v2.56h4.32v1.8zm-5.32 6.24h8.82V33h-1.88v-.78h-5.12V33h-1.82zm1.82 1.71v3.52h5.12V27zm21.4-.13a19.66 19.66 0 0 0 6.88 3.9 9.62 9.62 0 0 0-1.28 1.58 21.46 21.46 0 0 1-7-4.68v5.38h-2v-5.28a19.31 19.31 0 0 1-7.06 4.68 8.91 8.91 0 0 0-1.24-1.54 18.19 18.19 0 0 0 6.86-4h-6.34v-1.7h7.78v-1.52h-5.84v-8h13.74v8h-5.94v1.48h7.76v1.7zm-7.32-8h3.92v-1.7h-3.92zm3.92 3.2v-1.7h-3.92v1.74zm5.9-4.9h-3.94v1.7h3.94zm0 3.16h-3.94v1.74h3.94zm13.36-4.56a23.36 23.36 0 0 1-5.56 8.23 13.11 13.11 0 0 0-1.72-1.34 18.17 18.17 0 0 0 5.26-7.44zm5.52 9.44a54.19 54.19 0 0 1 4.64 6.79L730 33a22.33 22.33 0 0 0-1.3-2.26c-10.06.76-11.26.82-12.1 1.16a15.8 15.8 0 0 0-.74-2c.58-.14 1.1-.7 1.84-1.6a39.86 39.86 0 0 0 4.76-7.64l2 .86a44.73 44.73 0 0 1-5.34 8l8.42-.5c-.7-1-1.44-2.1-2.14-3zm-.34-10.14a25 25 0 0 0 5.74 7.34 9.72 9.72 0 0 0-1.54 1.6 35.14 35.14 0 0 1-6-8.2zm14.6 4.34a23.27 23.27 0 0 1-1.9 3.38h3.86v-2.52h1.88v2.52h5.84v6.3c0 .92-.2 1.42-.88 1.7a10.25 10.25 0 0 1-3.36.28 5.83 5.83 0 0 0-.6-1.68h2.54c.3 0 .42-.08.42-.36v-4.5h-4v8.54h-1.88v-8.54h-3.76v6.72h-1.86v-6.18a17.43 17.43 0 0 1-2.72 2.42 8.79 8.79 0 0 0-1.06-1.62 16.61 16.61 0 0 0 5.38-6.46h-4.76v-1.78h5.56a22.53 22.53 0 0 0 1-3l1.92.46c-.24.84-.54 1.68-.86 2.52h10v1.78zM3.24 186.81v1.54H1.68v-6.78A12.19 12.19 0 0 1 .74 183a10.15 10.15 0 0 0-.74-2.1 18.39 18.39 0 0 0 2.68-7.28H.42v-1.68h6.76v1.68H4.44A37.63 37.63 0 0 1 3.26 178h3.38v8.8zm1.84-7.16H3.24v5.52h1.84zm12.72 7.58c0 .86-.14 1.32-.68 1.58a6.21 6.21 0 0 1-2.58.3 5.74 5.74 0 0 0-.42-1.6h1.62c.2 0 .3-.08.3-.32v-2.72h-2.4v4H12v-4H9.56a9.41 9.41 0 0 1-2.06 4.82 5.73 5.73 0 0 0-1.46-1c1.86-2 2.06-5 2.06-7.2v-3.7c-.28.28-.54.58-.84.84a11.26 11.26 0 0 0-1.08-1.44 13.88 13.88 0 0 0 3.92-5.94l1.6.42c-.16.44-.32.86-.5 1.28h3.58l.28-.08 1.2.78A17.76 17.76 0 0 1 14.4 176h3.4zm-7.38-13.14A15.16 15.16 0 0 1 9.24 176h3.22a15.77 15.77 0 0 0 1.3-1.9zm1.6 8.82v-2h-2.2v.24c0 .54 0 1.16-.06 1.78zm-2.2-3.48H12v-1.86H9.82zm6.18-1.86h-2.4v1.86H16zm0 5.34v-2h-2.4v2zm14.22 4a16.19 16.19 0 0 0 2.86.2h5.36a5.42 5.42 0 0 0-.68 1.88H33c-3.94 0-6.8-.66-8.62-3.84a10.5 10.5 0 0 1-2.84 4.2 9.25 9.25 0 0 0-1.54-1.28c2.18-1.64 3.2-4.44 3.6-8l1.88.2a22.63 22.63 0 0 1-.46 2.52 5.94 5.94 0 0 0 3.24 3.56v-7.62h-4.58V177h11.26v1.76h-4.72v2.9h5.72v1.74h-5.72zm-7.46-9.24h-1.82v-4.58h7.54a16.22 16.22 0 0 0-.8-1.82l1.84-.54a16.62 16.62 0 0 1 1.12 2.36h7v4.58h-1.9v-2.82h-13zm35.54 7.18h-7v4.42h-1.94v-4.42h-9.1v-1.8h3.22v-5.28h5.88V175h-4.58a18.2 18.2 0 0 1-2.88 3.8 14.79 14.79 0 0 0-1.62-1.2 16.18 16.18 0 0 0 4.36-6.78l1.88.5c-.24.62-.52 1.28-.78 1.88h11.58v1.8h-6v2.76h5.58v1.74h-5.62v3.54h7zm-8.94-1.8v-3.54h-4v3.54zm14.24-4.94c0 3.24-.24 8-1.9 11.14a8.24 8.24 0 0 0-1.68-.84c1.6-3 1.76-7.3 1.76-10.3v-5.32h7.54a13.71 13.71 0 0 0-.66-1.54l1.86-.44a16 16 0 0 1 .92 2h6.76v1.72H63.6zm13.18 4.74a9.54 9.54 0 0 1-3.86 3.8 26.5 26.5 0 0 0 5.56 1 8.33 8.33 0 0 0-1.08 1.6 23.8 23.8 0 0 1-6.62-1.6 28.58 28.58 0 0 1-6.7 1.5 5.74 5.74 0 0 0-.76-1.58 27.48 27.48 0 0 0 5.48-.94 10.7 10.7 0 0 1-2.88-2.54l.78-.3h-2.42v-1.48h11l.32-.06zm-9.78-1.6v-3.2h-3v-1.5h3V175h1.76v1.54h4.34V175h1.82v1.54H78v1.5h-3.08v3.2zm.78 2.54a9.34 9.34 0 0 0 3.06 2.12 9.63 9.63 0 0 0 3.16-2.12zm1-5.74v1.76h4.32v-1.76zm21.98.32c1.36 4.16 3.88 7.54 7.66 9.12a7.36 7.36 0 0 0-1.42 1.74c-3.74-1.74-6.16-5-7.72-9.22a13.84 13.84 0 0 1-7.72 9.22 6.49 6.49 0 0 0-1.42-1.56 12.44 12.44 0 0 0 7.5-9.3h-7.1v-1.92H88a50.16 50.16 0 0 0 .24-5.52h2a50.45 50.45 0 0 1-.28 5.52h8.06v1.92zm13.94-.74c-1.3.74-2.6 1.46-3.72 2l-.76-1.6c1.12-.52 2.8-1.38 4.48-2.24v-4.9h1.8v9.86h-1.8zm6 6.16c1.28 2.22 3.92 3.36 7.8 3.7a6.22 6.22 0 0 0-1.12 1.66c-3.94-.54-6.52-1.88-8.1-4.48-1.12 2.24-3.34 3.78-8.18 4.58a5.77 5.77 0 0 0-.88-1.56c4.58-.68 6.5-2 7.4-3.9h-7.1v-1.64h7.6a13.16 13.16 0 0 0 .24-1.38h1.94c-.06.48-.14.94-.22 1.38H118v1.64zm-8.28-8a13.6 13.6 0 0 0-1.74-3.08l1.4-.72a11.86 11.86 0 0 1 1.84 3zm15.84-2.7c-1.56 4.82-5.48 6.84-10.4 7.7a7.52 7.52 0 0 0-1-1.54 18.42 18.42 0 0 0 4.76-1.24 24.33 24.33 0 0 0-2.14-2.18l1.34-.82a20.18 20.18 0 0 1 2.28 2.24 7.62 7.62 0 0 0 2.84-3.06h-5.2a13.28 13.28 0 0 1-2.62 2 8.78 8.78 0 0 0-1.12-1.36 9.92 9.92 0 0 0 4.08-3.92l1.78.58a6.79 6.79 0 0 1-.76 1.16h4.72l.34-.06zm14.54 11.4h-12.34v-1.78h12.34zm4.4-6a6.91 6.91 0 0 1-.08.86c-.52 5.62-1.06 8-2 8.86a2.83 2.83 0 0 1-2.08.8 32.31 32.31 0 0 1-3.62 0 4.19 4.19 0 0 0-.7-1.86c1.54.14 3.1.16 3.74.16a1.56 1.56 0 0 0 1.06-.24c.68-.56 1.2-2.62 1.6-6.82h-12.56c.62-2.26 1.42-6.08 1.88-8.9l1.9.18c-.12.64-.24 1.32-.38 2h10.84v1.78h-11.18c-.22 1.12-.46 2.22-.68 3.2zm10.7-.44v.4c-.16 6.62-.3 8.94-.78 9.64a1.59 1.59 0 0 1-1.24.72 10.76 10.76 0 0 1-2 0 4.13 4.13 0 0 0-.46-1.64c.72.06 1.36.06 1.66.06a.56.56 0 0 0 .6-.28c.28-.42.42-2.32.56-7.68h-1.72c-.22 3.9-.74 7.66-3.26 9.92a5.34 5.34 0 0 0-1.16-1.26c2.22-1.9 2.62-5.28 2.78-8.66h-1.3v-1.48a8.79 8.79 0 0 1-.84.9 8.57 8.57 0 0 0-.74-1.94 11.14 11.14 0 0 0 2.64-5.54l1.72.34a15.73 15.73 0 0 1-2.66 6.08h5.8a42.6 42.6 0 0 0-2.46-5.9l1.52-.66a35.85 35.85 0 0 1 2.7 6.32zm6.74 4c0 2.48-.92 5.44-5.44 7.28a7.69 7.69 0 0 0-1.12-1.32c4.46-1.48 4.8-4 4.8-6v-4h1.76zm-2.22-6.8c.12-.54.26-1.18.36-1.76h-3.64v-1.72h9.26v1.72h-3.76l-.58 1.76h3.8v9.46h-1.76v-7.86h-4.72v7.92h-1.68v-9.52zm2.82 9.72a34.79 34.79 0 0 1 3.22 3.18l-1.24 1.2a33.79 33.79 0 0 0-3.16-3.34zm9.46-7.34c-1.3.74-2.6 1.46-3.72 2l-.76-1.6c1.12-.52 2.8-1.38 4.48-2.24v-4.9h1.8v9.86h-1.8zm6 6.16c1.28 2.22 3.92 3.36 7.8 3.7a6.22 6.22 0 0 0-1.12 1.66c-3.94-.54-6.52-1.88-8.1-4.48-1.12 2.24-3.34 3.78-8.18 4.58a5.77 5.77 0 0 0-.88-1.56c4.58-.68 6.5-2 7.4-3.9h-7.1v-1.64h7.6a13.16 13.16 0 0 0 .24-1.38h1.94c-.06.48-.14.94-.22 1.38H178v1.64zm-8.28-8a13.6 13.6 0 0 0-1.74-3.08l1.4-.72a11.86 11.86 0 0 1 1.84 3zm15.84-2.7c-1.56 4.82-5.48 6.84-10.4 7.7a7.52 7.52 0 0 0-1-1.54 18.42 18.42 0 0 0 4.76-1.24 24.33 24.33 0 0 0-2.14-2.18l1.34-.82a20.18 20.18 0 0 1 2.28 2.24 7.62 7.62 0 0 0 2.84-3.06h-5.2a13.28 13.28 0 0 1-2.62 2 8.78 8.78 0 0 0-1.12-1.36 9.92 9.92 0 0 0 4.08-3.92l1.78.58a6.79 6.79 0 0 1-.76 1.16h4.72l.34-.06zm70.03-125.97c-.69.33-1.4.65-2.1 1v5.74a1.83 1.83 0 0 1-2 2.09h-1.94l-.48-2a12.53 12.53 0 0 0 1.66.14.64.64 0 0 0 .7-.73v-4.45c-.86.33-1.73.61-2.59.88l-.53-2.1a27.62 27.62 0 0 0 3.12-.85v-4.16h-2.71v-2h2.71v-3.47h2.09v3.46h2.06v2h-2.06V46c.7-.32 1.41-.65 2.1-1zM251 56h-2V37.8h9.57a18.8 18.8 0 0 1-.41 4.9c-.28.78-1.12 1.16-2.5 1.16h-1.55l-.57-1.81h1.16a6.93 6.93 0 0 0 1.06-.06.85.85 0 0 0 .51-.39 6.29 6.29 0 0 0 .26-1.91H251v5.35h7.67v1.86a13 13 0 0 1-1.89 5.29 17.64 17.64 0 0 0 3.24 2.2L258.63 56a19.69 19.69 0 0 1-3-2.32 11.88 11.88 0 0 1-3.3 2.34l-1-1.88a9.79 9.79 0 0 0 2.87-2 11.21 11.21 0 0 1-2.39-5.14H251zm4.29-5.4a11.94 11.94 0 0 0 1.39-3.6h-3a8.93 8.93 0 0 0 1.65 3.6zm12.96 5.33h-2.14V49c-1.1.33-2.28.65-3.5.94l-1.1-2a35.91 35.91 0 0 0 8.39-2.44 25.57 25.57 0 0 0-3.28-2.16l1.85-1.14a33 33 0 0 1 3.28 2.32 11.53 11.53 0 0 0 3.95-3.7h-6.84a21.52 21.52 0 0 1-5.23 3.42l-1.42-1.85c3.41-1.43 5.74-3.2 6.94-5.28l2.34.29a11 11 0 0 1-.86 1.42h7.49v1.88a14.83 14.83 0 0 1-6.86 6.3h7.56v9h-2.16v-1h-8.41zm8.41-7h-8.41v3.89h8.41z" fill="#fff"/></svg>